<svg xmlns="http://www.w3.org/2000/svg" viewBox="0 -0.5 15 15" shape-rendering="crispEdges">
<metadata>Made with Pixels to Svg https://codepen.io/shshaw/pen/XbxvNj</metadata>
<path stroke="#e2a835" d="M5 0h5M3 1h2M10 1h2M2 2h1M8 2h1M12 2h1M1 3h1M9 3h2M13 3h1M1 4h1M10 4h2M13 4h1M0 5h1M10 5h2M14 5h1M0 6h1M11 6h1M14 6h1M0 7h1M11 7h1M14 7h1M0 8h1M11 8h1M14 8h1M0 9h1M10 9h1M14 9h1M1 10h1M10 10h1M13 10h1M1 11h1M12 11h2M2 12h1M11 12h2M3 13h2M10 13h2M5 14h5" />
<path stroke="#b87342" d="M5 1h5M3 2h3M2 3h3M2 4h2M1 5h2M1 6h2M1 7h2M1 8h2M1 9h2M2 10h1M2 11h2M3 12h3M9 12h1M5 13h5" />
<path stroke="#99603e" d="M6 2h2M5 3h1" />
<path stroke="#c18c2e" d="M9 2h3M11 3h2M12 4h1M12 5h2M13 6h1M13 7h1M13 8h1M13 9h1" />
<path stroke="#e9c535" d="M6 3h3M5 4h1M9 4h1M4 5h1M9 5h1M4 6h1M10 6h1M4 7h1M10 7h1M4 8h1M10 8h1M4 9h2M9 9h1M5 10h5M9 11h1" />
<path stroke="#d69c34" d="M4 4h1M3 5h1M3 6h1M3 7h1M3 8h1M3 9h1M3 10h2M4 11h5M6 12h3" />
<path stroke="#ffeb39" d="M6 4h3M5 5h4M5 6h5M5 7h5M5 8h5M6 9h3" />
<path stroke="#e0ae30" d="M12 6h1M12 7h1M12 8h1M11 9h2M11 10h2M10 11h2M10 12h1" />
</svg>