<svg xmlns="http://www.w3.org/2000/svg" viewBox="0 -0.5 40 40" shape-rendering="crispEdges">
<metadata>Made with Pixels to Svg https://codepen.io/shshaw/pen/XbxvNj</metadata>
<path stroke="#03588e" d="M0 0h40M0 1h40M0 2h40M0 3h40M0 4h40M0 5h40M0 6h40M0 7h6M9 7h7M19 7h7M29 7h11M0 8h5M10 8h5M20 8h5M30 8h5M36 8h4M0 9h4M11 9h3M21 9h3M31 9h3M37 9h3M0 10h3M37 10h3M0 11h3M6 11h3M16 11h3M26 11h3M36 11h4M0 12h3M5 12h5M15 12h5M25 12h5M35 12h5M0 13h11M14 13h7M24 13h7M34 13h6M0 14h40M0 15h40M0 16h40M0 17h6M9 17h7M19 17h7M29 17h11M0 18h5M10 18h5M20 18h5M30 18h5M36 18h4M0 19h4M11 19h3M21 19h3M31 19h3M37 19h3M0 20h3M37 20h3M0 21h3M6 21h3M16 21h3M26 21h3M36 21h4M0 22h3M5 22h5M15 22h5M25 22h5M35 22h5M0 23h11M14 23h7M24 23h7M34 23h6M0 24h40M0 25h40M0 26h40M0 27h6M9 27h7M19 27h7M29 27h11M0 28h5M10 28h5M20 28h5M30 28h5M36 28h4M0 29h4M11 29h3M21 29h3M31 29h3M37 29h3M0 30h3M37 30h3M0 31h3M6 31h3M16 31h3M26 31h3M36 31h4M0 32h3M5 32h5M15 32h5M25 32h5M35 32h5M0 33h11M14 33h7M24 33h7M34 33h6M0 34h40M0 35h40M0 36h40M0 37h40M0 38h40M0 39h40" />
<path stroke="#3e7ba3" d="M6 7h3M16 7h3M26 7h3M5 8h1M9 8h1M15 8h1M19 8h1M25 8h1M29 8h1M35 8h1M4 9h1M6 9h3M10 9h1M14 9h1M16 9h3M20 9h1M24 9h1M26 9h3M30 9h1M34 9h1M36 9h1M3 10h1M5 10h1M9 10h1M11 10h3M15 10h1M19 10h1M21 10h3M25 10h1M29 10h1M31 10h3M35 10h1M3 11h2M10 11h1M14 11h1M20 11h1M24 11h1M30 11h1M34 11h1M11 12h3M21 12h3M31 12h3M6 17h3M16 17h3M26 17h3M5 18h1M9 18h1M15 18h1M19 18h1M25 18h1M29 18h1M35 18h1M4 19h1M6 19h3M10 19h1M14 19h1M16 19h3M20 19h1M24 19h1M26 19h3M30 19h1M34 19h1M36 19h1M3 20h1M5 20h1M9 20h1M11 20h3M15 20h1M19 20h1M21 20h3M25 20h1M29 20h1M31 20h3M35 20h1M3 21h2M10 21h1M14 21h1M20 21h1M24 21h1M30 21h1M34 21h1M11 22h3M21 22h3M31 22h3M6 27h3M16 27h3M26 27h3M5 28h1M9 28h1M15 28h1M19 28h1M25 28h1M29 28h1M35 28h1M4 29h1M6 29h3M10 29h1M14 29h1M16 29h3M20 29h1M24 29h1M26 29h3M30 29h1M34 29h1M36 29h1M3 30h1M5 30h1M9 30h1M11 30h3M15 30h1M19 30h1M21 30h3M25 30h1M29 30h1M31 30h3M35 30h1M3 31h2M10 31h1M14 31h1M20 31h1M24 31h1M30 31h1M34 31h1M11 32h3M21 32h3M31 32h3" />
<path stroke="#62a5c9" d="M6 8h3M16 8h3M26 8h3M5 9h1M9 9h1M15 9h1M19 9h1M25 9h1M29 9h1M35 9h1M4 10h1M10 10h1M14 10h1M20 10h1M24 10h1M30 10h1M34 10h1M11 11h3M21 11h3M31 11h3M6 18h3M16 18h3M26 18h3M5 19h1M9 19h1M15 19h1M19 19h1M25 19h1M29 19h1M35 19h1M4 20h1M10 20h1M14 20h1M20 20h1M24 20h1M30 20h1M34 20h1M11 21h3M21 21h3M31 21h3M6 28h3M16 28h3M26 28h3M5 29h1M9 29h1M15 29h1M19 29h1M25 29h1M29 29h1M35 29h1M4 30h1M10 30h1M14 30h1M20 30h1M24 30h1M30 30h1M34 30h1M11 31h3M21 31h3M31 31h3" />
<path stroke="#00244e" d="M6 10h3M16 10h3M26 10h3M36 10h1M5 11h1M9 11h1M15 11h1M19 11h1M25 11h1M29 11h1M35 11h1M3 12h2M10 12h1M14 12h1M20 12h1M24 12h1M30 12h1M34 12h1M11 13h3M21 13h3M31 13h3M6 20h3M16 20h3M26 20h3M36 20h1M5 21h1M9 21h1M15 21h1M19 21h1M25 21h1M29 21h1M35 21h1M3 22h2M10 22h1M14 22h1M20 22h1M24 22h1M30 22h1M34 22h1M11 23h3M21 23h3M31 23h3M6 30h3M16 30h3M26 30h3M36 30h1M5 31h1M9 31h1M15 31h1M19 31h1M25 31h1M29 31h1M35 31h1M3 32h2M10 32h1M14 32h1M20 32h1M24 32h1M30 32h1M34 32h1M11 33h3M21 33h3M31 33h3" />
</svg>