<svg xmlns="http://www.w3.org/2000/svg" viewBox="0 -0.5 40 40" shape-rendering="crispEdges">
<metadata>Made with Pixels to Svg https://codepen.io/shshaw/pen/XbxvNj</metadata>
<path stroke="#9e6f31" d="M0 0h40M0 1h40M0 2h9M10 2h9M20 2h8M29 2h11M0 3h8M13 3h5M21 3h6M30 3h10M0 4h7M12 4h5M22 4h4M31 4h9M0 5h6M11 5h5M21 5h4M30 5h6M37 5h3M0 6h5M10 6h5M20 6h4M29 6h6M38 6h2M0 7h4M9 7h5M19 7h4M28 7h6M39 7h1M0 8h3M8 8h5M18 8h4M27 8h6M38 8h2M0 9h2M7 9h5M17 9h4M26 9h6M37 9h3M0 10h2M6 10h5M16 10h4M25 10h6M36 10h4M0 11h4M5 11h5M15 11h4M24 11h6M35 11h5M0 12h9M14 12h4M23 12h6M34 12h6M0 13h8M13 13h4M22 13h6M33 13h7M0 14h7M12 14h4M21 14h6M32 14h8M0 15h6M11 15h4M20 15h6M31 15h5M37 15h3M0 16h5M10 16h4M19 16h6M30 16h5M38 16h2M0 17h4M9 17h4M18 17h6M29 17h5M38 17h2M0 18h3M8 18h4M17 18h6M28 18h5M38 18h2M0 19h2M7 19h4M16 19h6M27 19h5M37 19h3M0 20h2M6 20h4M15 20h6M26 20h5M36 20h4M0 21h4M5 21h4M14 21h6M25 21h5M35 21h5M0 22h8M13 22h6M24 22h5M34 22h6M0 23h7M12 23h6M23 23h5M33 23h7M0 24h6M11 24h6M22 24h5M32 24h8M0 25h5M10 25h6M21 25h5M31 25h5M37 25h3M0 26h4M9 26h6M20 26h5M30 26h5M38 26h2M0 27h3M8 27h6M19 27h5M29 27h5M38 27h2M0 28h2M7 28h6M18 28h5M28 28h5M38 28h2M0 29h2M6 29h6M17 29h5M27 29h5M37 29h3M0 30h11M16 30h5M26 30h5M36 30h4M0 31h10M15 31h5M25 31h5M35 31h5M0 32h9M14 32h5M24 32h5M34 32h6M0 33h8M13 33h5M23 33h5M33 33h7M0 34h7M12 34h5M22 34h5M32 34h8M0 35h6M11 35h5M21 35h5M31 35h9M0 36h6M10 36h6M20 36h6M30 36h10M0 37h40M0 38h40M0 39h40" />
<path stroke="#886720" d="M9 2h1M19 2h1M28 2h1M8 3h1M10 3h1M18 3h1M20 3h1M27 3h1M29 3h1M7 4h1M9 4h1M17 4h1M19 4h1M26 4h1M28 4h1M6 5h1M8 5h1M16 5h1M18 5h1M25 5h1M27 5h1M36 5h1M5 6h1M7 6h1M15 6h1M17 6h1M24 6h1M26 6h1M35 6h1M37 6h1M4 7h1M6 7h1M14 7h1M16 7h1M23 7h1M25 7h1M34 7h1M36 7h1M3 8h1M5 8h1M13 8h1M15 8h1M22 8h1M24 8h1M33 8h1M35 8h1M2 9h1M4 9h1M12 9h1M14 9h1M21 9h1M23 9h1M32 9h1M34 9h1M11 10h1M13 10h1M20 10h1M22 10h1M31 10h1M33 10h1M10 11h1M12 11h1M19 11h1M21 11h1M30 11h1M32 11h1M9 12h1M11 12h1M18 12h1M20 12h1M29 12h1M31 12h1M8 13h1M10 13h1M17 13h1M19 13h1M28 13h1M30 13h1M7 14h1M9 14h1M16 14h1M18 14h1M27 14h1M29 14h1M6 15h1M8 15h1M15 15h1M17 15h1M26 15h1M28 15h1M36 15h1M5 16h1M7 16h1M14 16h1M16 16h1M25 16h1M27 16h1M35 16h1M37 16h1M4 17h1M6 17h1M13 17h1M15 17h1M24 17h1M26 17h1M34 17h1M36 17h1M3 18h1M5 18h1M12 18h1M14 18h1M23 18h1M25 18h1M33 18h1M35 18h1M2 19h1M4 19h1M11 19h1M13 19h1M22 19h1M24 19h1M32 19h1M34 19h1M10 20h1M12 20h1M21 20h1M23 20h1M31 20h1M33 20h1M9 21h1M11 21h1M20 21h1M22 21h1M30 21h1M32 21h1M8 22h1M10 22h1M19 22h1M21 22h1M29 22h1M31 22h1M7 23h1M9 23h1M18 23h1M20 23h1M28 23h1M30 23h1M6 24h1M8 24h1M17 24h1M19 24h1M27 24h1M29 24h1M5 25h1M7 25h1M16 25h1M18 25h1M26 25h1M28 25h1M36 25h1M4 26h1M6 26h1M15 26h1M17 26h1M25 26h1M27 26h1M35 26h1M37 26h1M3 27h1M5 27h1M14 27h1M16 27h1M24 27h1M26 27h1M34 27h1M36 27h1M2 28h1M4 28h1M13 28h1M15 28h1M23 28h1M25 28h1M33 28h1M35 28h1M12 29h1M14 29h1M22 29h1M24 29h1M32 29h1M34 29h1M11 30h1M13 30h1M21 30h1M23 30h1M31 30h1M33 30h1M10 31h1M12 31h1M20 31h1M22 31h1M30 31h1M32 31h1M9 32h1M11 32h1M19 32h1M21 32h1M29 32h1M31 32h1M8 33h1M10 33h1M18 33h1M20 33h1M28 33h1M30 33h1M7 34h1M9 34h1M17 34h1M19 34h1M27 34h1M29 34h1M6 35h1M8 35h1M16 35h1M18 35h1M26 35h1M28 35h1" />
<path stroke="#efc554" d="M9 3h1M19 3h1M28 3h1M8 4h1M18 4h1M27 4h1M7 5h1M17 5h1M26 5h1M6 6h1M16 6h1M25 6h1M36 6h1M5 7h1M15 7h1M24 7h1M35 7h1M4 8h1M14 8h1M23 8h1M34 8h1M3 9h1M13 9h1M22 9h1M33 9h1M12 10h1M21 10h1M32 10h1M11 11h1M20 11h1M31 11h1M10 12h1M19 12h1M30 12h1M9 13h1M18 13h1M29 13h1M8 14h1M17 14h1M28 14h1M7 15h1M16 15h1M27 15h1M6 16h1M15 16h1M26 16h1M36 16h1M5 17h1M14 17h1M25 17h1M35 17h1M4 18h1M13 18h1M24 18h1M34 18h1M3 19h1M12 19h1M23 19h1M33 19h1M11 20h1M22 20h1M32 20h1M10 21h1M21 21h1M31 21h1M9 22h1M20 22h1M30 22h1M8 23h1M19 23h1M29 23h1M7 24h1M18 24h1M28 24h1M6 25h1M17 25h1M27 25h1M5 26h1M16 26h1M26 26h1M36 26h1M4 27h1M15 27h1M25 27h1M35 27h1M3 28h1M14 28h1M24 28h1M34 28h1M13 29h1M23 29h1M33 29h1M12 30h1M22 30h1M32 30h1M11 31h1M21 31h1M31 31h1M10 32h1M20 32h1M30 32h1M9 33h1M19 33h1M29 33h1M8 34h1M18 34h1M28 34h1M7 35h1M17 35h1M27 35h1" />
<path stroke="#5e4100" d="M11 3h1M10 4h1M20 4h1M29 4h1M9 5h1M19 5h1M28 5h1M8 6h1M18 6h1M27 6h1M7 7h1M17 7h1M26 7h1M37 7h1M6 8h1M16 8h1M25 8h1M36 8h1M5 9h1M15 9h1M24 9h1M35 9h1M2 10h3M14 10h1M23 10h1M34 10h1M13 11h1M22 11h1M33 11h1M12 12h1M21 12h1M32 12h1M11 13h1M20 13h1M31 13h1M10 14h1M19 14h1M30 14h1M9 15h1M18 15h1M29 15h1M8 16h1M17 16h1M28 16h1M7 17h1M16 17h1M27 17h1M37 17h1M6 18h1M15 18h1M26 18h1M36 18h1M5 19h1M14 19h1M25 19h1M35 19h1M2 20h3M13 20h1M24 20h1M34 20h1M12 21h1M23 21h1M33 21h1M11 22h1M22 22h1M32 22h1M10 23h1M21 23h1M31 23h1M9 24h1M20 24h1M30 24h1M8 25h1M19 25h1M29 25h1M7 26h1M18 26h1M28 26h1M6 27h1M17 27h1M27 27h1M37 27h1M5 28h1M16 28h1M26 28h1M36 28h1M2 29h3M15 29h1M25 29h1M35 29h1M14 30h1M24 30h1M34 30h1M13 31h1M23 31h1M33 31h1M12 32h1M22 32h1M32 32h1M11 33h1M21 33h1M31 33h1M10 34h1M20 34h1M30 34h1M9 35h1M19 35h1M29 35h1M6 36h3M16 36h3M26 36h3" />
<path stroke="#7d5c2e" d="M12 3h1M11 4h1M21 4h1M30 4h1M10 5h1M20 5h1M29 5h1M9 6h1M19 6h1M28 6h1M8 7h1M18 7h1M27 7h1M38 7h1M7 8h1M17 8h1M26 8h1M37 8h1M6 9h1M16 9h1M25 9h1M36 9h1M5 10h1M15 10h1M24 10h1M35 10h1M4 11h1M14 11h1M23 11h1M34 11h1M13 12h1M22 12h1M33 12h1M12 13h1M21 13h1M32 13h1M11 14h1M20 14h1M31 14h1M10 15h1M19 15h1M30 15h1M9 16h1M18 16h1M29 16h1M8 17h1M17 17h1M28 17h1M7 18h1M16 18h1M27 18h1M37 18h1M6 19h1M15 19h1M26 19h1M36 19h1M5 20h1M14 20h1M25 20h1M35 20h1M4 21h1M13 21h1M24 21h1M34 21h1M12 22h1M23 22h1M33 22h1M11 23h1M22 23h1M32 23h1M10 24h1M21 24h1M31 24h1M9 25h1M20 25h1M30 25h1M8 26h1M19 26h1M29 26h1M7 27h1M18 27h1M28 27h1M6 28h1M17 28h1M27 28h1M37 28h1M5 29h1M16 29h1M26 29h1M36 29h1M15 30h1M25 30h1M35 30h1M14 31h1M24 31h1M34 31h1M13 32h1M23 32h1M33 32h1M12 33h1M22 33h1M32 33h1M11 34h1M21 34h1M31 34h1M10 35h1M20 35h1M30 35h1M9 36h1M19 36h1M29 36h1" />
</svg>