<svg xmlns="http://www.w3.org/2000/svg" viewBox="0 -0.5 40 40" shape-rendering="crispEdges">
<metadata>Made with Pixels to Svg https://codepen.io/shshaw/pen/XbxvNj</metadata>
<path stroke="#2a1007" d="M1 1h2M4 1h2M8 1h2M11 1h2M14 1h3M18 1h3M22 1h4M27 1h4M32 1h2M36 1h3M2 2h12M15 2h14M30 2h2M33 2h5M1 3h1M3 3h26M30 3h9M1 4h4M6 4h24M31 4h8M2 5h4M7 5h2M10 5h15M26 5h5M32 5h6M1 6h6M8 6h2M11 6h13M27 6h5M33 6h6M1 7h7M9 7h15M27 7h10M38 7h1M2 8h7M10 8h4M15 8h8M28 8h10M1 9h1M3 9h10M16 9h7M25 9h1M28 9h11M1 10h11M17 10h5M25 10h1M29 10h9M1 11h4M6 11h1M8 11h4M17 11h5M24 11h3M29 11h10M2 12h4M7 12h1M9 12h2M14 12h1M18 12h3M24 12h3M30 12h7M38 12h1M1 13h6M8 13h1M10 13h1M14 13h1M18 13h3M25 13h1M30 13h8M1 14h7M9 14h1M13 14h3M19 14h1M23 14h1M27 14h1M31 14h8M1 15h9M13 15h3M19 15h1M23 15h2M26 15h2M31 15h8M2 16h7M12 16h5M22 16h7M32 16h7M2 17h7M12 17h5M22 17h7M32 17h7M1 18h7M11 18h7M22 18h7M32 18h7M1 19h6M10 19h8M21 19h9M33 19h6M2 20h5M10 20h8M21 20h9M33 20h6M1 21h1M3 21h3M9 21h8M20 21h11M34 21h5M1 22h5M9 22h8M22 22h9M34 22h5M1 23h4M8 23h8M24 23h8M35 23h4M1 24h4M8 24h7M25 24h7M35 24h4M1 25h3M7 25h7M26 25h7M36 25h2M1 26h3M7 26h7M26 26h7M36 26h3M2 27h1M37 27h2M1 28h2M37 28h2M1 29h1M38 29h1M2 30h11M27 30h11M1 31h1M3 31h5M9 31h5M26 31h1M28 31h11M1 32h2M4 32h5M10 32h4M26 32h2M29 32h10M1 33h9M11 33h4M25 33h14M1 34h10M12 34h4M24 34h13M38 34h1M2 35h16M22 35h15M2 36h27M30 36h8M2 37h4M7 37h5M13 37h5M19 37h6M26 37h4M31 37h3M35 37h4M1 38h6M8 38h5M14 38h5M20 38h6M28 38h3M32 38h3M36 38h3" />
<path stroke="#a5877b" d="M25 5h1M24 6h1M26 6h1M24 7h1M26 7h1M14 8h1M23 8h1M25 8h1M27 8h1M13 9h1M15 9h1M23 9h1M27 9h1M12 10h1M14 10h1M16 10h1M22 10h1M24 10h1M26 10h1M28 10h1M12 11h1M14 11h1M16 11h1M22 11h1M28 11h1M11 12h1M13 12h1M15 12h1M17 12h1M21 12h1M29 12h1M11 13h1M13 13h1M15 13h1M17 13h1M21 13h1M23 13h1M27 13h1M29 13h1M10 14h1M12 14h1M16 14h1M18 14h1M20 14h1M22 14h1M24 14h1M26 14h1M28 14h1M30 14h1M10 15h1M12 15h1M16 15h1M18 15h1M20 15h1M22 15h1M25 15h1M28 15h1M30 15h1M9 16h1M11 16h1M17 16h1M19 16h1M21 16h1M29 16h1M31 16h1M9 17h1M11 17h1M17 17h1M19 17h1M21 17h1M29 17h1M31 17h1M8 18h1M10 18h1M18 18h1M21 18h1M29 18h1M31 18h1M7 19h1M9 19h1M18 19h1M20 19h1M30 19h1M32 19h1M7 20h1M9 20h1M18 20h1M20 20h1M30 20h1M32 20h1M6 21h1M8 21h1M17 21h1M19 21h1M31 21h1M33 21h1M6 22h1M8 22h1M17 22h1M31 22h1M33 22h1M5 23h1M7 23h1M32 23h1M34 23h1M5 24h1M7 24h1M32 24h1M34 24h1M4 25h1M6 25h1M33 25h1M35 25h1M4 26h1M6 26h1M33 26h1M35 26h1M3 27h1M5 27h8M27 27h8M36 27h1M3 28h1M36 28h1M2 29h11M27 29h11" />
<path stroke="#efd6cc" d="M25 6h1M25 7h1M24 8h1M26 8h1M14 9h1M24 9h1M26 9h1M13 10h1M15 10h1M23 10h1M27 10h1M13 11h1M15 11h1M23 11h1M27 11h1M12 12h1M16 12h1M22 12h2M27 12h2M12 13h1M16 13h1M22 13h1M24 13h1M26 13h1M28 13h1M11 14h1M17 14h1M21 14h1M25 14h1M29 14h1M11 15h1M17 15h1M21 15h1M29 15h1M10 16h1M18 16h1M20 16h1M30 16h1M10 17h1M18 17h1M20 17h1M30 17h1M9 18h1M19 18h2M30 18h1M8 19h1M19 19h1M31 19h1M8 20h1M19 20h1M31 20h1M7 21h1M18 21h1M32 21h1M7 22h1M32 22h1M6 23h1M33 23h1M6 24h1M33 24h1M5 25h1M34 25h1M5 26h1M34 26h1M4 27h1M35 27h1M4 28h9M27 28h9" />
<path stroke="#e2a835" d="M18 22h4M16 23h2M22 23h2M15 24h1M20 24h1M24 24h1M14 25h1M21 25h2M25 25h1M14 26h1M22 26h2M25 26h1M13 27h1M22 27h2M26 27h1M13 28h1M23 28h1M26 28h1M13 29h1M23 29h1M26 29h1M13 30h1M22 30h1M26 30h1M14 31h1M22 31h1M25 31h1M14 32h1M24 32h2M15 33h1M23 33h2M16 34h2M22 34h2M18 35h4" />
<path stroke="#b87342" d="M18 23h4M16 24h3M15 25h3M15 26h2M14 27h2M14 28h2M14 29h2M14 30h2M15 31h1M15 32h2M16 33h3M21 33h1M18 34h4" />
<path stroke="#7d3e18" d="M19 24h1M18 25h1" />
<path stroke="#c18c2e" d="M21 24h3M23 25h2M24 26h1M24 27h2M25 28h1M25 29h1M25 30h1" />
<path stroke="#e9c535" d="M19 25h2M18 26h1M21 26h1M17 27h1M21 27h1M17 28h1M22 28h1M17 29h1M22 29h1M17 30h2M21 30h1M18 31h4M21 32h1" />
<path stroke="#d69c34" d="M17 26h1M16 27h1M16 28h1M16 29h1M16 30h1M16 31h2M17 32h4M19 33h2" />
<path stroke="#ffeb39" d="M19 26h2M18 27h3M18 28h4M18 29h4M19 30h2" />
<path stroke="#e0ae30" d="M24 28h1M24 29h1M23 30h2M23 31h2M22 32h2M22 33h1" />
</svg>