<svg xmlns="http://www.w3.org/2000/svg" viewBox="0 -0.5 64 64" shape-rendering="crispEdges">
<metadata>Made with Pixels to Svg https://codepen.io/shshaw/pen/XbxvNj</metadata>
<path stroke="#a8a4aa" d="M7 8h23M6 9h25M6 10h2M29 10h2M6 11h3M11 11h15M28 11h3M7 12h2M11 12h15M28 12h2M11 13h2M14 13h2M18 13h1M21 13h2M24 13h2M11 14h2M14 14h2M18 14h1M21 14h2M24 14h2M11 15h2M14 15h2M18 15h1M21 15h2M24 15h2M11 16h2M14 16h2M18 16h1M21 16h2M24 16h2M11 17h2M14 17h2M18 17h1M21 17h2M24 17h2M11 18h2M14 18h2M18 18h1M21 18h2M24 18h2M11 19h2M14 19h2M18 19h1M21 19h2M24 19h2M11 20h2M14 20h2M18 20h1M21 20h2M24 20h2M11 21h2M14 21h2M18 21h1M21 21h2M24 21h2M11 22h2M14 22h2M18 22h1M21 22h2M24 22h2M11 23h2M14 23h2M18 23h1M21 23h2M24 23h2M11 24h2M14 24h2M18 24h1M21 24h2M24 24h2M11 25h2M14 25h2M18 25h1M21 25h2M24 25h2M11 26h2M14 26h2M18 26h1M21 26h2M24 26h2M11 27h2M14 27h2M18 27h1M21 27h2M24 27h2M50 27h3M11 28h2M14 28h2M18 28h1M21 28h2M24 28h2M49 28h1M51 28h2M11 29h2M14 29h2M18 29h1M21 29h2M24 29h2M47 29h3M51 29h2M11 30h2M14 30h2M18 30h1M21 30h2M24 30h2M46 30h1M48 30h2M51 30h2M11 31h2M14 31h2M18 31h1M21 31h2M24 31h2M43 31h3M48 31h2M51 31h2M11 32h2M14 32h2M18 32h1M21 32h2M24 32h2M42 32h1M45 32h1M48 32h2M51 32h2M11 33h2M14 33h2M18 33h1M21 33h2M24 33h2M38 33h5M45 33h1M48 33h2M51 33h2M11 34h2M14 34h2M18 34h1M21 34h2M24 34h2M38 34h2M41 34h2M45 34h1M48 34h2M51 34h2M11 35h2M14 35h2M18 35h1M21 35h2M24 35h2M38 35h2M41 35h2M45 35h1M48 35h2M51 35h2M11 36h2M14 36h2M18 36h1M21 36h2M24 36h2M38 36h2M41 36h2M45 36h1M48 36h2M51 36h2M11 37h2M14 37h2M18 37h1M21 37h2M24 37h2M38 37h2M41 37h2M45 37h1M48 37h2M51 37h2M11 38h2M14 38h2M18 38h1M21 38h2M24 38h2M38 38h2M41 38h2M45 38h1M48 38h2M51 38h2M11 39h2M14 39h2M18 39h1M21 39h2M24 39h2M38 39h2M41 39h2M45 39h1M48 39h2M51 39h2M11 40h2M14 40h2M18 40h1M21 40h2M24 40h2M38 40h2M41 40h2M45 40h1M48 40h2M51 40h2M11 41h2M14 41h2M18 41h1M21 41h2M24 41h2M38 41h2M41 41h2M45 41h1M48 41h2M51 41h2M11 42h2M14 42h2M18 42h1M21 42h2M24 42h2M38 42h2M41 42h2M45 42h1M48 42h2M51 42h2M11 43h2M14 43h2M18 43h1M21 43h2M24 43h2M38 43h2M41 43h2M45 43h1M48 43h2M51 43h2M11 44h2M14 44h2M18 44h1M21 44h2M24 44h2M38 44h2M41 44h2M45 44h1M48 44h2M51 44h2M11 45h2M14 45h2M18 45h1M21 45h2M24 45h2M38 45h2M41 45h2M45 45h1M48 45h2M51 45h2M11 46h2M14 46h2M18 46h1M21 46h2M24 46h2M38 46h2M41 46h2M45 46h1M48 46h2M51 46h2M11 47h2M14 47h2M18 47h1M21 47h2M24 47h2M38 47h2M41 47h2M45 47h1M48 47h2M51 47h2M11 48h15M38 48h15M11 49h15M38 49h15M9 51h19M36 51h19M9 52h19M36 52h19M8 54h21M35 54h21M8 55h21M35 55h21" />
</svg>