<svg xmlns="http://www.w3.org/2000/svg" viewBox="0 -0.5 40 40" shape-rendering="crispEdges">
<metadata>Made with Pixels to Svg https://codepen.io/shshaw/pen/XbxvNj</metadata>
<path stroke="#a8a4aa" d="M5 5h13M4 6h2M17 6h2M4 7h2M7 7h9M17 7h2M7 8h1M9 8h1M11 8h1M13 8h1M15 8h1M7 9h1M9 9h1M11 9h1M13 9h1M15 9h1M7 10h1M9 10h1M11 10h1M13 10h1M15 10h1M7 11h1M9 11h1M11 11h1M13 11h1M15 11h1M7 12h1M9 12h1M11 12h1M13 12h1M15 12h1M7 13h1M9 13h1M11 13h1M13 13h1M15 13h1M7 14h1M9 14h1M11 14h1M13 14h1M15 14h1M7 15h1M9 15h1M11 15h1M13 15h1M15 15h1M7 16h1M9 16h1M11 16h1M13 16h1M15 16h1M7 17h1M9 17h1M11 17h1M13 17h1M15 17h1M31 17h2M7 18h1M9 18h1M11 18h1M13 18h1M15 18h1M29 18h2M32 18h1M7 19h1M9 19h1M11 19h1M13 19h1M15 19h1M27 19h2M30 19h1M32 19h1M7 20h1M9 20h1M11 20h1M13 20h1M15 20h1M25 20h2M28 20h1M30 20h1M32 20h1M7 21h1M9 21h1M11 21h1M13 21h1M15 21h1M24 21h1M26 21h1M28 21h1M30 21h1M32 21h1M7 22h1M9 22h1M11 22h1M13 22h1M15 22h1M24 22h1M26 22h1M28 22h1M30 22h1M32 22h1M7 23h1M9 23h1M11 23h1M13 23h1M15 23h1M24 23h1M26 23h1M28 23h1M30 23h1M32 23h1M7 24h1M9 24h1M11 24h1M13 24h1M15 24h1M24 24h1M26 24h1M28 24h1M30 24h1M32 24h1M7 25h1M9 25h1M11 25h1M13 25h1M15 25h1M24 25h1M26 25h1M28 25h1M30 25h1M32 25h1M7 26h1M9 26h1M11 26h1M13 26h1M15 26h1M24 26h1M26 26h1M28 26h1M30 26h1M32 26h1M7 27h1M9 27h1M11 27h1M13 27h1M15 27h1M24 27h1M26 27h1M28 27h1M30 27h1M32 27h1M7 28h1M9 28h1M11 28h1M13 28h1M15 28h1M24 28h1M26 28h1M28 28h1M30 28h1M32 28h1M7 29h1M9 29h1M11 29h1M13 29h1M15 29h1M24 29h1M26 29h1M28 29h1M30 29h1M32 29h1M7 30h9M24 30h9M6 32h11M23 32h11M5 34h13M22 34h13" />
</svg>