<svg xmlns="http://www.w3.org/2000/svg" viewBox="0 -0.5 40 40" shape-rendering="crispEdges">
<metadata>Made with Pixels to Svg https://codepen.io/shshaw/pen/XbxvNj</metadata>
<path stroke="#000000" d="M4 7h1M35 7h1M3 8h3M34 8h3M3 9h3M34 9h3M3 10h4M17 10h6M33 10h4M3 11h4M14 11h12M33 11h4M3 12h2M6 12h2M13 12h4M23 12h4M32 12h2M35 12h2M3 13h2M6 13h2M12 13h2M26 13h2M32 13h2M35 13h2M3 14h2M7 14h2M11 14h2M27 14h2M31 14h2M35 14h2M4 15h2M8 15h4M28 15h4M34 15h2M4 16h2M9 16h2M29 16h2M34 16h2M5 17h2M33 17h2M5 18h2M33 18h2M6 19h2M13 19h2M25 19h2M32 19h2M7 20h2M14 20h2M24 20h2M31 20h2M8 21h2M15 21h2M23 21h2M30 21h2M8 22h2M30 22h2M8 23h2M30 23h2M8 24h2M30 24h2M9 25h2M29 25h2M9 26h2M29 26h2M10 27h2M28 27h2M10 28h3M27 28h3M11 29h3M26 29h3M12 30h2M26 30h2M13 31h4M23 31h4M14 32h12" />
</svg>