<svg xmlns="http://www.w3.org/2000/svg" viewBox="0 -0.5 40 40" shape-rendering="crispEdges">
<metadata>Made with Pixels to Svg https://codepen.io/shshaw/pen/XbxvNj</metadata>
<path stroke="#5d1d75" d="M0 0h40M0 1h40M0 2h40M0 3h40M0 4h40M0 5h40M0 6h40M0 7h4M5 7h30M36 7h4M0 8h3M6 8h28M37 8h3M0 9h3M6 9h28M37 9h3M0 10h3M7 10h10M23 10h10M37 10h3M0 11h3M7 11h7M26 11h7M37 11h3M0 12h3M8 12h5M27 12h5M37 12h3M0 13h3M8 13h4M28 13h4M37 13h3M0 14h3M9 14h2M17 14h6M29 14h2M37 14h3M0 15h4M14 15h12M36 15h4M0 16h4M7 16h1M13 16h14M32 16h1M36 16h4M0 17h5M8 17h1M12 17h16M31 17h1M35 17h5M0 18h5M8 18h5M15 18h10M27 18h5M35 18h5M0 19h6M9 19h3M16 19h8M28 19h3M34 19h6M0 20h7M10 20h3M17 20h6M27 20h3M33 20h7M0 21h8M11 21h3M17 21h6M26 21h3M32 21h8M0 22h8M11 22h4M17 22h6M25 22h4M32 22h8M0 23h8M11 23h18M32 23h8M0 24h8M11 24h18M32 24h8M0 25h9M12 25h16M31 25h9M0 26h9M12 26h16M31 26h9M0 27h10M13 27h14M30 27h10M0 28h10M14 28h12M30 28h10M0 29h11M16 29h8M29 29h11M0 30h12M28 30h12M0 31h13M27 31h13M0 32h14M26 32h14M0 33h17M23 33h17M0 34h40M0 35h40M0 36h40M0 37h40M0 38h40M0 39h40" />
<path stroke="#6e3071" d="M4 7h1M35 7h1M3 8h1M5 8h1M34 8h1M36 8h1M3 9h1M5 9h1M34 9h1M36 9h1M3 10h1M6 10h1M17 10h6M33 10h1M36 10h1M3 11h1M6 11h1M14 11h3M23 11h3M33 11h1M36 11h1M3 12h1M7 12h1M13 12h1M17 12h6M26 12h1M32 12h1M36 12h1M3 13h1M7 13h1M12 13h1M14 13h3M23 13h3M27 13h1M32 13h1M36 13h1M3 14h1M5 14h1M8 14h1M11 14h1M13 14h1M26 14h1M28 14h1M31 14h1M34 14h1M36 14h1M4 15h1M6 15h1M9 15h2M12 15h1M27 15h1M29 15h2M33 15h1M35 15h1M4 16h1M6 16h1M11 16h1M28 16h1M33 16h1M35 16h1M5 17h1M7 17h1M32 17h1M34 17h1M5 18h1M7 18h1M13 18h2M25 18h2M32 18h1M34 18h1M8 19h1M12 19h1M15 19h1M24 19h1M27 19h1M31 19h1M9 20h1M16 20h1M23 20h1M30 20h1M10 21h1M29 21h1M10 22h1M29 22h1M10 23h1M29 23h1M10 24h1M29 24h1M11 25h1M28 25h1M11 26h1M28 26h1M10 27h1M12 27h1M27 27h1M29 27h1M11 28h1M13 28h1M26 28h1M28 28h1M12 29h1M14 29h2M24 29h2M27 29h1M13 30h1M17 30h6M26 30h1M14 31h3M23 31h3M17 32h6" />
<path stroke="#c25da8" d="M4 8h1M35 8h1M4 9h1M35 9h1M4 10h2M34 10h2M4 11h2M17 11h6M34 11h2M4 12h1M6 12h1M14 12h3M23 12h3M33 12h1M35 12h1M4 13h1M6 13h1M13 13h1M26 13h1M33 13h1M35 13h1M4 14h1M7 14h1M12 14h1M27 14h1M32 14h1M35 14h1M5 15h1M8 15h1M11 15h1M28 15h1M31 15h1M34 15h1M5 16h1M9 16h2M29 16h2M34 16h1M6 17h1M33 17h1M6 18h1M33 18h1M7 19h1M13 19h2M25 19h2M32 19h1M8 20h1M14 20h2M24 20h2M31 20h1M9 21h1M15 21h2M23 21h2M30 21h1M9 22h1M30 22h1M9 23h1M30 23h1M9 24h1M30 24h1M10 25h1M29 25h1M10 26h1M29 26h1M11 27h1M28 27h1M12 28h1M27 28h1M13 29h1M26 29h1M14 30h3M23 30h3M17 31h6" />
<path stroke="#400040" d="M5 12h1M34 12h1M5 13h1M17 13h6M34 13h1M6 14h1M14 14h3M23 14h3M33 14h1M7 15h1M13 15h1M26 15h1M32 15h1M8 16h1M12 16h1M27 16h1M31 16h1M9 17h3M28 17h3M6 19h1M33 19h1M7 20h1M13 20h1M26 20h1M32 20h1M8 21h1M14 21h1M25 21h1M31 21h1M8 22h1M15 22h2M23 22h2M31 22h1M8 23h1M31 23h1M8 24h1M31 24h1M9 25h1M30 25h1M9 26h1M30 26h1M10 28h1M29 28h1M11 29h1M28 29h1M12 30h1M27 30h1M13 31h1M26 31h1M14 32h3M23 32h3M17 33h6" />
</svg>