<svg xmlns="http://www.w3.org/2000/svg" viewBox="0 -0.5 40 40" shape-rendering="crispEdges">
<metadata>Made with Pixels to Svg https://codepen.io/shshaw/pen/XbxvNj</metadata>
<path stroke="#72200a" d="M0 0h40M0 1h40M0 2h40M0 3h40M0 4h40M0 5h19M21 5h19M0 6h18M22 6h18M0 7h17M23 7h17M0 8h16M24 8h16M0 9h15M25 9h15M0 10h14M19 10h2M26 10h14M0 11h13M18 11h4M27 11h13M0 12h12M17 12h6M28 12h12M0 13h11M16 13h8M29 13h11M0 14h10M15 14h10M30 14h10M0 15h9M14 15h12M31 15h9M0 16h8M13 16h14M32 16h8M0 17h7M12 17h16M33 17h7M0 18h6M11 18h18M34 18h6M0 19h5M10 19h20M35 19h5M0 20h4M9 20h22M36 20h4M0 21h4M10 21h20M36 21h4M0 22h4M11 22h18M36 22h4M0 23h4M11 23h18M36 23h4M0 24h8M11 24h18M32 24h8M0 25h8M11 25h18M32 25h8M0 26h8M11 26h18M32 26h8M0 27h8M11 27h18M32 27h8M0 28h8M11 28h18M32 28h8M0 29h8M11 29h18M32 29h8M0 30h8M11 30h18M32 30h8M0 31h8M11 31h18M32 31h8M0 32h8M32 32h8M0 33h8M32 33h8M0 34h8M32 34h8M0 35h40M0 36h40M0 37h40M0 38h40M0 39h40" />
<path stroke="#7d3721" d="M19 5h2M18 6h1M21 6h1M17 7h1M22 7h1M16 8h1M23 8h1M15 9h1M24 9h1M14 10h1M25 10h1M13 11h1M26 11h1M12 12h1M27 12h1M11 13h1M28 13h1M10 14h1M29 14h1M9 15h1M30 15h1M8 16h1M31 16h1M7 17h1M32 17h1M6 18h1M33 18h1M5 19h1M34 19h1M4 20h1M35 20h1" />
<path stroke="#d64344" d="M19 6h2M18 7h4M17 8h2M21 8h2M16 9h2M22 9h2M15 10h2M23 10h2M14 11h2M24 11h2M13 12h2M25 12h2M12 13h2M26 13h2M11 14h2M27 14h2M10 15h2M28 15h2M9 16h2M29 16h2M8 17h2M30 17h2M7 18h2M31 18h2M6 19h2M32 19h2M5 20h2M33 20h2M4 21h2M34 21h2M4 22h6M30 22h6M9 23h1M30 23h1M9 24h1M30 24h1M9 25h1M30 25h1M9 26h1M30 26h1M9 27h1M30 27h1M9 28h1M30 28h1M9 29h1M30 29h1M9 30h1M30 30h1M9 31h1M30 31h1M9 32h1M30 32h1M9 33h22" />
<path stroke="#570e00" d="M19 8h2M18 9h1M21 9h1M17 10h1M22 10h1M16 11h1M23 11h1M15 12h1M24 12h1M14 13h1M25 13h1M13 14h1M26 14h1M12 15h1M27 15h1M11 16h1M28 16h1M10 17h1M29 17h1M9 18h1M30 18h1M8 19h1M31 19h1M7 20h1M32 20h1M6 21h1M8 21h2M30 21h2M33 21h1M10 22h1M29 22h1M10 23h1M29 23h1M8 24h1M10 24h1M29 24h1M31 24h1M8 25h1M10 25h1M29 25h1M31 25h1M8 26h1M10 26h1M29 26h1M31 26h1M8 27h1M10 27h1M29 27h1M31 27h1M8 28h1M10 28h1M29 28h1M31 28h1M8 29h1M10 29h1M29 29h1M31 29h1M8 30h1M10 30h1M29 30h1M31 30h1M8 31h1M10 31h1M29 31h1M31 31h1M8 32h1M31 32h1M8 33h1M31 33h1" />
<path stroke="#390400" d="M19 9h2M18 10h1M21 10h1M17 11h1M22 11h1M16 12h1M23 12h1M15 13h1M24 13h1M14 14h1M25 14h1M13 15h1M26 15h1M12 16h1M27 16h1M11 17h1M28 17h1M10 18h1M29 18h1M9 19h1M30 19h1M8 20h1M31 20h1M7 21h1M32 21h1M4 23h5M31 23h5M8 34h24" />
<path stroke="#93492d" d="M10 32h20" />
</svg>