<svg xmlns="http://www.w3.org/2000/svg" viewBox="0 -0.5 100 100" shape-rendering="crispEdges">
<metadata>Made with Pixels to Svg https://codepen.io/shshaw/pen/XbxvNj</metadata>
<path stroke="#000000" d="M48 2h1M48 3h2M43 4h8M38 5h13M35 6h9M48 6h2M32 7h7M48 7h1M30 8h6M28 9h5M26 10h5M25 11h4M23 12h4M22 13h4M21 14h3M19 15h4M18 16h4M17 17h3M16 18h3M15 19h3M15 20h2M14 21h3M13 22h3M12 23h3M12 24h2M11 25h3M10 26h3M10 27h2M9 28h3M9 29h2M8 30h3M8 31h2M7 32h3M7 33h2M7 34h2M6 35h3M6 36h2M6 37h2M5 38h3M5 39h2M5 40h2M5 41h2M5 42h2M4 43h3M4 44h2M4 45h2M4 46h2M4 47h2M4 48h2M4 49h2M94 50h2M94 51h2M94 52h2M94 53h2M94 54h2M94 55h2M93 56h3M93 57h2M93 58h2M93 59h2M93 60h2M92 61h3M92 62h2M92 63h2M91 64h3M91 65h2M91 66h2M90 67h3M90 68h2M89 69h3M89 70h2M88 71h3M88 72h2M87 73h3M86 74h3M86 75h2M85 76h3M84 77h3M83 78h3M83 79h2M82 80h3M81 81h3M80 82h3M78 83h4M77 84h4M76 85h3M74 86h4M73 87h4M71 88h4M69 89h5M67 90h5M64 91h6M51 92h1M61 92h7M50 93h2M56 93h9M49 94h13M49 95h8M50 96h2M51 97h1" />
</svg>