<svg xmlns="http://www.w3.org/2000/svg" viewBox="0 -0.5 100 100" shape-rendering="crispEdges">
<metadata>Made with Pixels to Svg https://codepen.io/shshaw/pen/XbxvNj</metadata>
<path stroke="#000000" d="M51 2h1M50 3h2M49 4h8M49 5h13M50 6h2M56 6h9M51 7h1M61 7h7M64 8h6M67 9h5M69 10h5M71 11h4M73 12h4M74 13h4M76 14h3M77 15h4M78 16h4M80 17h3M81 18h3M82 19h3M83 20h2M83 21h3M84 22h3M85 23h3M86 24h2M86 25h3M87 26h3M88 27h2M88 28h3M89 29h2M89 30h3M90 31h2M90 32h3M91 33h2M91 34h2M91 35h3M92 36h2M92 37h2M92 38h3M93 39h2M93 40h2M93 41h2M93 42h2M93 43h3M94 44h2M94 45h2M94 46h2M94 47h2M94 48h2M94 49h2M4 50h2M4 51h2M4 52h2M4 53h2M4 54h2M4 55h2M4 56h3M5 57h2M5 58h2M5 59h2M5 60h2M5 61h3M6 62h2M6 63h2M6 64h3M7 65h2M7 66h2M7 67h3M8 68h2M8 69h3M9 70h2M9 71h3M10 72h2M10 73h3M11 74h3M12 75h2M12 76h3M13 77h3M14 78h3M15 79h2M15 80h3M16 81h3M17 82h3M18 83h4M19 84h4M21 85h3M22 86h4M23 87h4M25 88h4M26 89h5M28 90h5M30 91h6M32 92h7M48 92h1M35 93h9M48 93h2M38 94h13M43 95h8M48 96h2M48 97h1" />
</svg>