<svg xmlns="http://www.w3.org/2000/svg" viewBox="0 -0.5 40 40" shape-rendering="crispEdges">
<metadata>Made with Pixels to Svg https://codepen.io/shshaw/pen/XbxvNj</metadata>
<path stroke="#136d31" d="M0 0h40M0 1h40M0 2h40M0 3h8M12 3h16M32 3h8M0 4h6M14 4h12M34 4h6M0 5h5M15 5h10M35 5h5M0 6h4M8 6h4M16 6h8M28 6h4M36 6h4M0 7h4M7 7h6M16 7h8M27 7h6M36 7h4M0 8h3M6 8h8M17 8h6M26 8h8M37 8h3M0 9h3M6 9h8M17 9h6M26 9h8M37 9h3M0 10h3M6 10h8M17 10h6M26 10h8M37 10h3M0 11h3M6 11h8M17 11h6M26 11h8M37 11h3M0 12h4M7 12h6M16 12h8M27 12h6M36 12h4M0 13h4M9 13h2M16 13h8M29 13h2M36 13h4M0 14h5M15 14h10M35 14h5M0 15h6M14 15h12M34 15h6M0 16h7M13 16h14M33 16h7M0 17h7M13 17h14M33 17h7M0 18h7M13 18h14M33 18h7M0 19h7M13 19h5M22 19h5M33 19h7M0 20h8M12 20h4M24 20h4M32 20h8M0 21h15M25 21h15M0 22h14M18 22h4M26 22h14M0 23h14M17 23h6M26 23h14M0 24h13M16 24h8M27 24h13M0 25h13M16 25h8M27 25h13M0 26h13M16 26h8M27 26h13M0 27h13M16 27h8M27 27h13M0 28h14M17 28h6M26 28h14M0 29h14M19 29h2M26 29h14M0 30h15M25 30h15M0 31h16M24 31h16M0 32h17M23 32h17M0 33h17M23 33h17M0 34h17M23 34h17M0 35h17M23 35h17M0 36h18M22 36h18M0 37h40M0 38h40M0 39h40" />
<path stroke="#47922e" d="M8 3h4M28 3h4M6 4h2M12 4h2M26 4h2M32 4h2M5 5h1M14 5h1M25 5h1M34 5h1M4 6h1M15 6h1M24 6h1M35 6h1M4 7h1M15 7h1M24 7h1M35 7h1M3 8h1M16 8h1M23 8h1M36 8h1M3 9h1M16 9h1M23 9h1M36 9h1M3 10h1M5 10h1M14 10h1M16 10h1M23 10h1M25 10h1M34 10h1M36 10h1M3 11h1M5 11h1M14 11h1M16 11h1M23 11h1M25 11h1M34 11h1M36 11h1M6 12h1M13 12h1M26 12h1M33 12h1M6 13h3M11 13h3M26 13h3M31 13h3M9 14h2M29 14h2M9 15h2M29 15h2M7 16h1M9 16h2M12 16h1M27 16h1M29 16h2M32 16h1M7 17h1M9 17h2M12 17h1M27 17h1M29 17h2M32 17h1M7 18h1M9 18h2M12 18h1M27 18h1M29 18h2M32 18h1M7 19h1M12 19h1M18 19h4M27 19h1M32 19h1M16 20h2M22 20h2M15 21h1M24 21h1M14 22h1M25 22h1M14 23h1M25 23h1M13 24h1M26 24h1M13 25h1M26 25h1M13 26h1M15 26h1M24 26h1M26 26h1M13 27h1M15 27h1M24 27h1M26 27h1M16 28h1M23 28h1M16 29h3M21 29h3M19 30h2M19 31h2M17 32h1M19 32h2M22 32h1M17 33h1M19 33h2M22 33h1M17 34h1M19 34h2M22 34h1M17 35h1M22 35h1" />
<path stroke="#88ba39" d="M8 4h4M28 4h4M6 5h2M12 5h2M26 5h2M32 5h2M5 6h1M14 6h1M25 6h1M34 6h1M5 7h1M14 7h1M25 7h1M34 7h1M4 8h1M15 8h1M24 8h1M35 8h1M4 9h1M15 9h1M24 9h1M35 9h1M4 10h1M15 10h1M24 10h1M35 10h1M4 11h1M15 11h1M24 11h1M35 11h1M5 12h1M14 12h1M25 12h1M34 12h1M5 13h1M14 13h1M25 13h1M34 13h1M6 14h3M11 14h3M26 14h3M31 14h3M8 15h1M11 15h1M28 15h1M31 15h1M8 16h1M11 16h1M28 16h1M31 16h1M8 17h1M11 17h1M28 17h1M31 17h1M8 18h1M11 18h1M28 18h1M31 18h1M8 19h4M28 19h4M18 20h4M16 21h2M22 21h2M15 22h1M24 22h1M15 23h1M24 23h1M14 24h1M25 24h1M14 25h1M25 25h1M14 26h1M25 26h1M14 27h1M25 27h1M15 28h1M24 28h1M15 29h1M24 29h1M16 30h3M21 30h3M18 31h1M21 31h1M18 32h1M21 32h1M18 33h1M21 33h1M18 34h1M21 34h1M18 35h4" />
<path stroke="#1f2618" d="M8 5h4M28 5h4M18 21h4" />
<path stroke="#054630" d="M6 6h2M12 6h2M26 6h2M32 6h2M6 7h1M13 7h1M26 7h1M33 7h1M5 8h1M14 8h1M25 8h1M34 8h1M5 9h1M14 9h1M25 9h1M34 9h1M4 12h1M15 12h1M24 12h1M35 12h1M4 13h1M15 13h1M24 13h1M35 13h1M5 14h1M14 14h1M25 14h1M34 14h1M6 15h2M12 15h2M26 15h2M32 15h2M8 20h4M28 20h4M16 22h2M22 22h2M16 23h1M23 23h1M15 24h1M24 24h1M15 25h1M24 25h1M14 28h1M25 28h1M14 29h1M25 29h1M15 30h1M24 30h1M16 31h2M22 31h2M18 36h4" />
</svg>